inDegrees=no
num_controls=7
num_derivatives=13
num_iterations=111
num_multipliers=7
num_parameters=0
num_slacks=7
num_states=26
objective=6.113359
objective_accelerations=0.632183
objective_balance=0.064073
objective_effort=0.529693
objective_height=4.817376
objective_ligament=0.070034
solver_duration=1163.025690
status=Solve_Succeeded
success=true
DataType=double
version=3
OpenSimVersion=4.4-2022-07-23-0e9fedc
endheader
time	/jointset/ground_pelvis/pelvis_tilt/value	/jointset/ground_pelvis/pelvis_tx/value	/jointset/ground_pelvis/pelvis_ty/value	/jointset/hip_l/hip_flexion_l/value	/jointset/hip_l/hip_adduction_l/value	/jointset/hip_l/hip_rotation_l/value	/jointset/back/lumbar_extension/value	/jointset/patellofemoral_l/patellar_flexion_l/value	/jointset/knee_l/knee_flexion_l/value	/jointset/knee_l/knee_adduction_l/value	/jointset/knee_l/knee_rotation_l/value	/jointset/ankle_l/ankle_angle_l/value	/jointset/subtalar_l/subtalar_angle_l/value	/jointset/ground_pelvis/pelvis_tilt/speed	/jointset/ground_pelvis/pelvis_tx/speed	/jointset/ground_pelvis/pelvis_ty/speed	/jointset/hip_l/hip_flexion_l/speed	/jointset/hip_l/hip_adduction_l/speed	/jointset/hip_l/hip_rotation_l/speed	/jointset/back/lumbar_extension/speed	/jointset/patellofemoral_l/patellar_flexion_l/speed	/jointset/knee_l/knee_flexion_l/speed	/jointset/knee_l/knee_adduction_l/speed	/jointset/knee_l/knee_rotation_l/speed	/jointset/ankle_l/ankle_angle_l/speed	/jointset/subtalar_l/subtalar_angle_l/speed	/forceset/tau_hip_flexion_l	/forceset/tau_hip_adduction_l	/forceset/tau_hip_rotation_l	/forceset/tau_knee_flexion_l	/forceset/tau_ankle_angle_l	/forceset/tau_subtalar_angle_l	/forceset/tau_lumbar_extension	lambda_cid13_p0	lambda_cid13_p1	lambda_cid13_p2	lambda_cid13_p3	lambda_cid13_p4	lambda_cid13_p5	lambda_cid14_p0	/jointset/ground_pelvis/pelvis_tilt/accel	/jointset/ground_pelvis/pelvis_tx/accel	/jointset/ground_pelvis/pelvis_ty/accel	/jointset/hip_l/hip_flexion_l/accel	/jointset/hip_l/hip_adduction_l/accel	/jointset/hip_l/hip_rotation_l/accel	/jointset/back/lumbar_extension/accel	/jointset/patellofemoral_l/patellar_flexion_l/accel	/jointset/knee_l/knee_flexion_l/accel	/jointset/knee_l/knee_adduction_l/accel	/jointset/knee_l/knee_rotation_l/accel	/jointset/ankle_l/ankle_angle_l/accel	/jointset/subtalar_l/subtalar_angle_l/accel	gamma_cid13_p0	gamma_cid13_p1	gamma_cid13_p2	gamma_cid13_p3	gamma_cid13_p4	gamma_cid13_p5	gamma_cid14_p0
1.5	-0.01217948548719128	-0.01098359138822092	0.8430111937767327	0.7250660892410227	-0.3207067225503912	-0.1254572298858876	-0.8003989699328303	0.8214709134625416	0.8214709134628909	-0.08897101993025683	-0.1745292843115341	0.1706186941012736	0.0327064214068266	0.3751999421248065	0.2257344576261376	0.4666798730544003	-2.12802880841731	0.07601241842648943	-0.6470140589886838	0.8393086008082632	-2.113684120127643	-2.113684120127706	-0.1846131074478707	-2.981902743953274e-05	-0.4924777811942216	-0.090126640787786	-0.2106431690792992	0.03665285567364626	-0.006863407631964956	-0.2218097629922622	0.05223361309888822	0.03460937030645549	0.2857960473659857	-25.06934101160291	-12.56387749083244	3.7446619386987	-7.364419400489795	-665.1198761914671	-65.29632792838697	-13.66472179388463	0.045671598580127	0.6864443738245152	-0.6832203741236805	-0.7368057259561583	0.4764727482661498	-0.4616823539327953	2.021327666580464	-1.054299569998421	-1.05429956999829	-0.2114806386018971	0.01419977551677736	-0.3654912217146633	0.4574067261691757	4.656580604167358e-07	7.390185722350743e-07	-2.379997493627225e-06	-1.449707555718388e-07	5.578265258480979e-07	6.254162911403536e-07	3.791268795199045e-07
1.51	-0.008425405463614838	-0.008692110658325831	0.8476429483398754	0.7037506213446811	-0.3199239890028003	-0.1319487781348902	-0.7919063418819848	0.8002835436231246	0.8002835436231461	-0.09083091617003669	-0.1745295596930846	0.165675981643627	0.03182657650247749	0.3755562148885222	0.2325383202243645	0.4595764489903938	-2.134791135332673	0.08053802465616014	-0.651236432822481	0.8591052915630232	-2.12350689353955	-2.123506893539722	-0.1873567097299863	-1.998521947428952e-05	-0.4959743523965639	-0.08581451219552606	-0.2027231250230764	0.03545966739453013	-0.006605837060645681	-0.2182806478667403	0.05365247734249209	0.03402786811643527	0.2782538594959744	-24.36245998745357	-12.51028908958876	3.822000451322172	-7.393146830387528	-660.2446920341976	-65.4401965329356	-14.45838851382901	0.02166852339164799	0.673831861972934	-0.7379747486579028	-0.6048486746418541	0.4413718051135755	-0.3932508487309319	1.942082110105783	-0.9039011228482661	-0.9039011228645756	-0.304289884292426	-0.005262291486346523	-0.3281447591800786	0.4223883106628256	4.680752261662426e-07	9.323216982992395e-07	-2.293526793898531e-06	-1.156918944242238e-07	5.766236787329256e-07	7.279387984652741e-07	3.863959084100992e-07
1.52	-0.004669550030776148	-0.006333296370618567	0.8522008543971541	0.6823757496791393	-0.319095845943945	-0.1384806973123497	-0.7832190984575526	0.7790064190703962	0.7790064190700478	-0.0927179464049557	-0.1745296642315352	0.160701022536022	0.03099070736103326	0.3755550239772091	0.2392011691885727	0.4519101718815941	-2.139909562260665	0.08509432067765035	-0.6550882446813792	0.8782316755250669	-2.131635062793911	-2.13163506279419	-0.190039906463128	4.349591573980566e-06	-0.4989271111863468	-0.08133148820692623	-0.1948030809667463	0.03426647911547246	-0.006348266489764746	-0.2147515327411787	0.05507134158611434	0.0334463659264977	0.2707116716260379	-23.65441794941514	-12.45775371589782	3.90047965714107	-7.470449037606265	-655.3855752593646	-65.65517691819362	-15.23841253949442	-0.0258211364258167	0.658241647020857	-0.7957909830823203	-0.4080257284819836	0.4826107066301282	-0.3875699589529136	1.88726630803703	-0.7153787384889695	-0.7153787384889053	-0.1993995288071402	0.01709997613346165	-0.256728739202699	0.4915858054372134	4.708654629303584e-07	1.09920612548345e-06	-2.221957464778537e-06	-9.326438495449151e-08	6.01954012088443e-07	8.189552253934318e-07	3.923523287902416e-07
1.53	-0.0009153323862069115	-0.003908598607151736	0.8566793674751141	0.660957729237739	-0.3182220680091623	-0.1450495957321538	-0.7743441037059194	0.7576565973549321	0.7576565973547938	-0.09463135628283102	-0.1745296825082036	0.1556993569091382	0.03020047865022378	0.375237188873763	0.2457105557760887	0.4437040765921659	-2.143417502518403	0.08965906035154786	-0.6586225940743262	0.896648196738119	-2.138018842920717	-2.138018842920745	-0.192632786795022	-3.91996067478892e-06	-0.5012988871141947	-0.07668776803935111	-0.1870454033250895	0.0330726003845493	-0.006059414999144781	-0.2112150590168899	0.05634147418975052	0.03264011887624383	0.2632950754127515	-23.0207122304636	-12.28370578223037	3.947145140299133	-7.449242090629365	-650.7806016899476	-65.66881105913156	-16.00434681795308	-0.04242546330043964	0.6430990041104918	-0.8461435690538381	-0.2805760638685039	0.4432294639566979	-0.3256388746924092	1.800983318277615	-0.5533919139896468	-0.5533919139518048	-0.2877064226171767	-0.009583762884946881	-0.2112811807367323	0.4547782867507081	4.740520876474961e-07	1.238020685107708e-06	-2.166220841930285e-06	-7.811643664250943e-08	6.342258496940682e-07	8.977464419000291e-07	3.969141026284534e-07
